<svg width="22" height="26" viewBox="0 0 22 26" fill="none" xmlns="http://www.w3.org/2000/svg">
<path d="M17.7294 14.5721C17.0144 10.972 20.4308 8.86078 20.4308 8.86078C20.4308 8.86078 19.0988 6.93678 16.8628 6.44278C14.6268 5.94531 13.5079 6.56325 12.3916 7.03211C11.2736 7.49665 10.7155 7.49665 10.7155 7.49665C9.10264 7.49665 7.9231 5.78931 4.8473 6.56931C2.73177 7.10318 0.500971 9.54718 0.0979715 12.4661C-0.305895 15.3842 0.564238 19.1082 2.24037 21.9942C3.91824 24.882 5.62557 25.9688 6.8363 25.9991C8.04704 26.0294 9.25777 25.1307 10.7172 24.9106C12.1767 24.6974 13.0728 25.4418 14.5046 25.8448C15.9328 26.2478 16.432 25.8717 18.0726 24.4755C19.7193 23.0793 21.2126 19.071 21.2126 19.071C21.2126 19.071 18.4453 18.1766 17.7294 14.5721Z" fill="white"/>
<path d="M14.5644 4.1132C16.1486 2.49687 15.6104 0 15.6104 0C15.6104 0 13.3866 0.3874 11.8968 1.9396C10.4052 3.49353 10.6522 5.94273 10.6522 5.94273C10.6522 5.94273 12.9784 5.7278 14.5644 4.1132Z" fill="white"/>
</svg>
