<svg width="26" height="26" viewBox="0 0 26 26" fill="none" xmlns="http://www.w3.org/2000/svg">
<path fill-rule="evenodd" clip-rule="evenodd" d="M5.60323 13C5.60323 12.1556 5.74339 11.346 5.99384 10.5867L1.61243 7.241C0.758496 8.97467 0.277496 10.9283 0.277496 13C0.277496 15.07 0.75809 17.0223 1.61061 18.7549L5.98957 15.4028C5.74156 14.6469 5.60323 13.8403 5.60323 13Z" fill="#FBBC05"/>
<path fill-rule="evenodd" clip-rule="evenodd" d="M13.2959 5.31822C15.1304 5.31822 16.7873 5.96822 18.0891 7.03178L21.8761 3.25C19.5684 1.24089 16.6097 0 13.2959 0C8.15119 0 3.72957 2.94206 1.6124 7.241L5.9936 10.5867C7.00313 7.52233 9.8808 5.31822 13.2959 5.31822Z" fill="#EA4335"/>
<path fill-rule="evenodd" clip-rule="evenodd" d="M13.2959 20.6818C9.88101 20.6818 7.00333 18.4777 5.9938 15.4133L1.6124 18.7584C3.72957 23.0579 8.15119 26 13.2959 26C16.4712 26 19.5028 24.8725 21.778 22.76L17.6193 19.5449C16.4458 20.2841 14.9681 20.6818 13.2959 20.6818Z" fill="#34A853"/>
<path fill-rule="evenodd" clip-rule="evenodd" d="M25.7225 13C25.7225 12.2318 25.6041 11.4045 25.4266 10.6364H13.296V15.6591H20.2786C19.9294 17.3717 18.9792 18.6881 17.6193 19.5449L21.7781 22.76C24.168 20.5418 25.7225 17.2374 25.7225 13Z" fill="#4285F4"/>
</svg>
