<svg width="68" height="38" viewBox="0 0 68 38" fill="none" xmlns="http://www.w3.org/2000/svg">
<path d="M34.9515 24.2673C34.9872 24.2673 35.0229 24.2657 35.0586 24.2632C35.267 24.2495 36.203 24.2941 36.203 26.2432C36.203 28.2214 34.6222 28.2117 34.3123 28.1906C34.2677 28.1874 34.2239 28.1858 34.1793 28.1858H23.5327C22.4815 28.1858 21.625 29.0301 21.612 30.0813C21.612 30.0984 21.612 30.1162 21.612 30.134C21.612 31.9039 23.3543 31.8479 23.3543 31.8479L34.4754 32.0134C35.3554 32.0255 36.2055 32.3305 36.8973 32.8748C39.5002 34.9228 46.947 39.7441 55.7556 36.18C66.2797 31.9217 67.5929 22.7659 67.6838 22.0108C67.6886 21.9735 67.6935 21.937 67.7008 21.9005C67.7876 21.4154 68.3351 18.0931 67.6895 15.0417C67.6895 15.0417 66.047 4.17614 53.5607 0.405295C53.4959 0.385828 53.4302 0.369606 53.3637 0.356628C52.2403 0.141684 42.5354 -1.49838 36.5186 4.66199C36.1025 5.08783 35.5331 5.32872 34.9377 5.32872H29.3703C29.3703 5.32872 28.0871 5.24599 28.1406 7.0864C28.1414 7.12046 28.1422 7.15534 28.1414 7.18941C28.1325 7.46843 28.1333 9.07686 29.3735 9.02657C30.7305 8.97141 37.1788 9.02657 37.1788 9.02657C37.1788 9.02657 38.5544 8.86272 38.5544 11C38.5544 12.9142 37.0514 12.902 36.7384 12.8785C36.6929 12.8753 36.6475 12.8728 36.6013 12.8728H19.5721C19.5721 12.8728 18.3659 12.8834 18.3659 14.8722C18.3659 16.655 19.7773 16.6526 20.0693 16.6331C20.1123 16.6299 20.1552 16.6283 20.199 16.6283H30.1684C31.1174 16.6283 31.9342 17.3193 32.0672 18.2586C32.0875 18.4022 32.0988 18.5579 32.0988 18.7282C32.0988 20.4737 30.707 20.4729 30.4255 20.4551C30.3841 20.4527 30.3428 20.451 30.3014 20.451H11.68C11.68 20.451 10.1778 20.3959 10.1778 22.448C10.1778 24.2965 11.9468 24.2722 11.9468 24.2722" fill="#51C773"/>
<path d="M17.8574 5.3571H24.2213C24.2213 5.3571 25.4274 5.37332 25.4274 7.15046C25.4274 8.92759 24.1735 8.81647 24.1735 8.81647H17.8574C17.8574 8.81647 16.635 9.00789 16.635 7.08719C16.635 5.16648 17.8574 5.3571 17.8574 5.3571Z" fill="#51C773"/>
<path d="M2.08942 13.095H12.9753C12.9753 13.095 15.0388 13.1113 15.0388 14.8884C15.0388 16.6655 12.8942 16.5544 12.8942 16.5544H2.09023C2.09023 16.5544 2.36e-07 16.7458 2.36e-07 14.8251C-0.000810872 12.9052 2.08942 13.095 2.08942 13.095Z" fill="#51C773"/>
<path d="M38.6939 30.3351L56.2139 21.6393L49.9294 17.2593L59.0706 7.10257L41.678 15.6719L47.8984 20.2425L38.6939 30.3351Z" fill="white"/>
</svg>
