<svg width="494" height="481" viewBox="0 0 494 481" fill="none" xmlns="http://www.w3.org/2000/svg">
<g clip-path="url(#clip0_84_318)">
<path d="M314.737 107.789H288.481V331.635C288.481 335.147 287.79 338.625 286.446 341.87C285.102 345.114 283.132 348.063 280.648 350.546C278.165 353.03 275.216 354.999 271.972 356.343C268.727 357.687 265.249 358.379 261.737 358.379H61V358.635C61 362.147 61.6918 365.625 63.0358 368.87C64.3798 372.114 66.3497 375.063 68.8332 377.546C71.3166 380.03 74.2648 381.999 77.5096 383.343C80.7543 384.687 84.232 385.379 87.7441 385.379H314.737C318.249 385.379 321.727 384.687 324.972 383.343C328.216 381.999 331.165 380.03 333.648 377.546C336.131 375.063 338.101 372.114 339.445 368.87C340.789 365.625 341.481 362.147 341.481 358.635V134.533C341.481 127.44 338.664 120.637 333.648 115.622C328.633 110.606 321.83 107.789 314.737 107.789V107.789Z" fill="#F2F2F2"/>
<path d="M439.202 463.515C439.667 463.537 440.127 463.415 440.52 463.166C440.913 462.917 441.221 462.553 441.4 462.124C441.58 461.694 441.623 461.22 441.524 460.766C441.425 460.311 441.189 459.898 440.847 459.582L440.691 458.964C440.712 458.914 440.732 458.865 440.753 458.815C441.221 457.709 442.006 456.766 443.009 456.105C444.011 455.443 445.187 455.093 446.388 455.097C447.589 455.102 448.762 455.461 449.759 456.13C450.757 456.799 451.535 457.748 451.995 458.857C453.833 463.285 456.174 467.721 456.75 472.403C457.004 474.473 456.897 476.571 456.434 478.604C460.752 469.184 462.995 458.945 463.009 448.583C463.01 445.982 462.866 443.384 462.576 440.8C462.337 438.681 462.006 436.578 461.582 434.489C459.267 423.158 454.298 412.538 447.082 403.5C443.589 401.594 440.764 398.664 438.989 395.103C438.345 393.824 437.891 392.457 437.639 391.047C438.033 391.099 439.124 385.099 438.827 384.73C439.376 383.897 440.359 383.483 440.958 382.67C443.941 378.627 448.05 379.333 450.195 384.827C454.777 387.14 454.821 390.975 452.01 394.664C450.221 397.011 449.975 400.186 448.406 402.699C448.567 402.906 448.735 403.106 448.896 403.313C451.848 407.108 454.421 411.184 456.577 415.481C456.053 410.667 456.679 405.797 458.404 401.272C460.152 397.054 463.429 393.502 466.314 389.857C467.077 388.877 468.114 388.146 469.293 387.756C470.471 387.365 471.739 387.333 472.936 387.663C474.133 387.993 475.205 388.67 476.017 389.61C476.829 390.549 477.345 391.708 477.498 392.94C477.504 392.994 477.51 393.047 477.516 393.101C477.087 393.343 476.667 393.6 476.257 393.871C475.741 394.216 475.342 394.708 475.111 395.283C474.879 395.859 474.828 396.491 474.962 397.096C475.096 397.702 475.41 398.253 475.862 398.677C476.315 399.101 476.885 399.378 477.498 399.473L477.561 399.482C477.408 401.027 477.138 402.558 476.753 404.062C480.455 418.378 472.463 423.592 461.052 423.826C460.8 423.955 460.555 424.084 460.303 424.207C462.47 430.348 463.829 436.744 464.346 443.235C464.639 447.064 464.622 450.911 464.294 454.738L464.314 454.602C465.14 450.347 467.41 446.508 470.74 443.732C475.686 439.67 482.673 438.173 488.009 434.908C488.576 434.544 489.235 434.349 489.909 434.348C490.583 434.346 491.243 434.537 491.812 434.899C492.38 435.26 492.834 435.776 493.119 436.387C493.404 436.998 493.508 437.677 493.42 438.345L493.398 438.488C492.603 438.812 491.828 439.185 491.079 439.605C490.651 439.847 490.231 440.103 489.821 440.375C489.305 440.719 488.905 441.212 488.674 441.787C488.443 442.363 488.391 442.995 488.525 443.6C488.659 444.206 488.973 444.757 489.426 445.181C489.879 445.605 490.449 445.882 491.062 445.977L491.124 445.986C491.17 445.993 491.208 445.999 491.254 446.006C489.895 449.251 487.987 452.237 485.615 454.835C483.3 467.332 473.359 468.518 462.725 464.878H462.718C461.552 469.949 459.861 474.884 457.674 479.605H439.654C439.589 479.404 439.531 479.198 439.473 478.997C441.141 479.102 442.815 479.003 444.459 478.7C443.122 477.06 441.785 475.406 440.448 473.766C440.418 473.735 440.39 473.703 440.364 473.669C439.686 472.829 439.001 471.996 438.323 471.157L438.323 471.156C438.287 468.582 438.582 466.014 439.202 463.516L439.202 463.515Z" fill="#F2F2F2"/>
<path d="M240.724 77.3395C241.382 78.3362 242.249 79.1782 243.264 79.8071C244.28 80.4361 245.419 80.837 246.605 80.9821C247.79 81.1272 248.993 81.013 250.13 80.6475C251.267 80.282 252.311 79.6739 253.19 78.8652L290.655 95.768L297.878 86.5547L253.234 66.8044C251.763 65.4262 249.837 64.6356 247.822 64.5824C245.806 64.5292 243.842 65.2171 242.3 66.5157C240.758 67.8142 239.746 69.6333 239.456 71.6282C239.165 73.6231 239.617 75.6552 240.725 77.3395H240.724Z" fill="#A0616A"/>
<path d="M401.508 87.8792L405.224 108.936C405.397 109.918 405.363 110.926 405.124 111.894C404.885 112.862 404.446 113.77 403.835 114.559C403.225 115.348 402.456 116 401.578 116.474C400.7 116.948 399.733 117.233 398.739 117.312L335.6 122.277L261.383 89.0612L270.248 72.234L334.675 92.6362L401.508 87.8792Z" fill="#51C773"/>
<path d="M253.737 72.7888H26.7441C11.9737 72.7888 0 84.7626 0 99.5329V323.635C0 338.406 11.9737 350.379 26.7441 350.379H253.737C268.508 350.379 280.481 338.406 280.481 323.635V99.5329C280.481 84.7626 268.508 72.7888 253.737 72.7888Z" fill="#F2F2F2"/>
<path d="M26.7443 78.2887C23.9544 78.2887 21.1919 78.8381 18.6145 79.9058C16.037 80.9734 13.6951 82.5382 11.7224 84.5109C9.74968 86.4836 8.18484 88.8256 7.11722 91.403C6.0496 93.9805 5.50012 96.743 5.50012 99.5328V323.635C5.50012 329.27 7.73833 334.673 11.7224 338.657C15.7064 342.641 21.11 344.879 26.7443 344.879H171.617C185.191 344.879 198.632 342.206 211.173 337.011C223.713 331.817 235.108 324.203 244.706 314.605C254.305 305.006 261.918 293.612 267.113 281.071C272.307 268.53 274.981 255.089 274.981 241.515V99.5328C274.981 96.743 274.432 93.9805 273.364 91.403C272.296 88.8256 270.732 86.4836 268.759 84.5109C266.786 82.5382 264.444 80.9734 261.867 79.9058C259.289 78.8381 256.527 78.2887 253.737 78.2887H26.7443Z" fill="white"/>
<path d="M203.696 146.3H76.2892C75.1202 146.3 73.999 145.836 73.1723 145.009C72.3456 144.182 71.8812 143.061 71.8812 141.892C71.8812 140.723 72.3456 139.602 73.1723 138.775C73.999 137.948 75.1202 137.484 76.2892 137.484H203.696C204.865 137.484 205.986 137.948 206.813 138.775C207.639 139.602 208.104 140.723 208.104 141.892C208.104 143.061 207.639 144.182 206.813 145.009C205.986 145.836 204.865 146.3 203.696 146.3Z" fill="#F2F2F2"/>
<path d="M203.696 240.3H76.2892C75.1202 240.3 73.999 239.836 73.1723 239.009C72.3456 238.182 71.8812 237.061 71.8812 235.892C71.8812 234.723 72.3456 233.602 73.1723 232.775C73.999 231.948 75.1202 231.484 76.2892 231.484H203.696C204.865 231.484 205.986 231.948 206.813 232.775C207.639 233.602 208.104 234.723 208.104 235.892C208.104 237.061 207.639 238.182 206.813 239.009C205.986 239.836 204.865 240.3 203.696 240.3Z" fill="#F2F2F2"/>
<path d="M255.433 193.331H24.5522C23.3831 193.331 22.2619 192.866 21.4353 192.04C20.6086 191.213 20.1442 190.092 20.1442 188.923C20.1442 187.754 20.6086 186.632 21.4353 185.806C22.2619 184.979 23.3831 184.515 24.5522 184.515H255.433C256.602 184.515 257.723 184.979 258.55 185.806C259.376 186.632 259.841 187.754 259.841 188.923C259.841 190.092 259.376 191.213 258.55 192.04C257.723 192.866 256.602 193.331 255.433 193.331V193.331Z" fill="#F2F2F2"/>
<path d="M393.531 180.687L370.531 229.687L459.008 220.726L440.539 173.687L393.531 180.687Z" fill="#A0616A"/>
<path d="M414.101 462.32L405.712 462.249L401.999 429.138L414.379 429.243L414.101 462.32Z" fill="#A0616A"/>
<path d="M387.231 475.659C387.223 476.654 387.611 477.61 388.308 478.32C389.005 479.029 389.955 479.433 390.949 479.442L407.628 479.582L410.548 473.663L411.62 479.612L417.913 479.669L416.324 458.452L414.135 458.306L405.204 457.691L402.323 457.498L402.272 463.501L388.874 472.588C388.372 472.929 387.96 473.386 387.674 473.921C387.388 474.456 387.236 475.052 387.231 475.659V475.659Z" fill="#2F2E41"/>
<path d="M321.266 462.358L313.268 459.825L319.447 427.085L331.251 430.822L321.266 462.358Z" fill="#A0616A"/>
<path d="M291.663 467.214C291.363 468.162 291.452 469.19 291.91 470.073C292.368 470.956 293.158 471.621 294.105 471.922L310.007 476.956L314.537 472.156L313.814 478.158L319.813 480.061L324.528 459.314L322.477 458.532L314.122 455.319L311.425 454.288L309.612 460.011L294.136 464.761C293.556 464.939 293.028 465.256 292.597 465.683C292.166 466.11 291.846 466.635 291.663 467.214V467.214Z" fill="#2F2E41"/>
<path d="M454.978 206.946L374.531 221.687C374.531 221.687 361.628 231.339 365.08 234.796C368.531 238.252 369.067 237.717 366.799 239.985C364.531 242.253 359.628 245.284 359.58 247.268C359.531 249.252 323.531 338.252 323.531 338.252C323.531 338.252 327.531 336.252 324.531 339.252C321.531 342.252 321.531 344.731 321.531 344.731L307.531 439.252L330.268 440.591L352.531 354.418L402.191 273.914C402.191 273.914 407.118 345.703 407.325 350.478C407.531 355.252 410.531 349.252 407.531 355.252C404.531 361.252 402.531 357.252 404.531 361.252C406.531 365.252 397.327 446.687 397.327 446.687H418.08L462.59 277.896C462.59 277.896 478.426 229.64 454.978 206.946Z" fill="#2F2E41"/>
<path d="M431.28 71.9345L399.055 68.5862L390.706 79.4255L380.98 84.6057C376.864 86.7979 373.466 90.1293 371.194 94.2014C368.921 98.2736 367.87 102.914 368.165 107.568L379.531 173.687C379.531 173.687 369.93 195.306 376.531 200.687C383.132 206.068 371.428 219.394 385.531 212.687C399.635 205.98 460.531 213.687 460.531 213.687L447.531 176.687L457.243 140.33L458.312 109.844C458.511 104.148 456.821 98.5449 453.504 93.9095C450.186 89.274 445.429 85.8663 439.972 84.2174L438.614 83.8071L431.28 71.9345Z" fill="#51C773"/>
<path d="M475.644 47.2302C475.855 56.3132 472.461 65.1082 467.584 72.8332C466.135 68.3234 463.531 64.2189 460.814 60.3063C462.183 68.7705 460.725 77.4501 456.664 85.0018C456.521 85.1042 456.373 85.1993 456.22 85.2867C452.245 87.6777 447.206 88.6462 442.906 86.9193C451.79 77.3426 452.921 61.4754 445.472 50.7336C443.363 47.6856 440.636 44.9899 439.33 41.5212C437.268 35.9866 439.25 29.893 440.501 24.1227C441.67 18.7523 441.875 12.3614 438.272 8.42559C438.657 7.87557 439.181 7.43774 439.79 7.15699C440.4 6.87624 441.074 6.76265 441.742 6.82786C443.963 7.14165 445.58 9.07251 446.61 11.0612C447.64 13.0498 448.319 15.2539 449.754 16.9715C452.412 20.1865 456.938 20.9466 460.753 22.641C469.991 26.7556 475.423 37.1233 475.644 47.2302Z" fill="#2F2E41"/>
<path d="M237.651 479.658C237.65 479.815 237.681 479.97 237.741 480.114C237.8 480.259 237.888 480.39 237.998 480.501C238.109 480.611 238.24 480.699 238.385 480.759C238.53 480.818 238.685 480.849 238.841 480.848H492.131C492.447 480.848 492.749 480.723 492.972 480.5C493.196 480.277 493.321 479.974 493.321 479.658C493.321 479.343 493.196 479.04 492.972 478.817C492.749 478.594 492.447 478.468 492.131 478.468H238.841C238.685 478.468 238.53 478.498 238.385 478.558C238.24 478.617 238.109 478.705 237.998 478.816C237.888 478.926 237.8 479.058 237.741 479.202C237.681 479.347 237.65 479.502 237.651 479.658Z" fill="#CCCCCC"/>
<path d="M477.638 257.748C482.609 257.748 486.638 253.718 486.638 248.748C486.638 243.777 482.609 239.748 477.638 239.748C472.668 239.748 468.638 243.777 468.638 248.748C468.638 253.718 472.668 257.748 477.638 257.748Z" fill="#51C773"/>
<path d="M397.886 42.0369C398.414 40.1893 394.776 51.4832 396.531 51.6871C404.528 52.6045 415.505 57.3803 421.075 59.6083C421.326 59.5791 421.577 59.55 421.82 59.5136C422.417 59.4481 423 59.3534 423.576 59.2442C436.544 56.7905 441.531 36.8691 441.531 36.6871C441.531 35.7915 439.382 11.1941 435.996 10.8301C435.107 10.7336 434.213 10.685 433.318 10.6845H424.916C423.177 10.3098 421.415 10.0544 419.641 9.91997H419.627C402.711 8.6312 389.374 18.9412 390.62 31.4866C390.628 31.5011 390.643 31.5157 390.65 31.5303C391.011 32.0691 391.329 32.5788 391.609 33.0666C391.882 33.5253 392.111 33.9621 392.31 34.3772C393.852 37.5809 389.888 41.6121 392.516 42.3646C396.011 43.3653 383.324 76.2581 397.158 76.2581C390.429 78.1713 396.43 47.1336 397.886 42.0369Z" fill="#2F2E41"/>
<path d="M412.986 61.337C423.973 61.337 432.88 52.4303 432.88 41.4434C432.88 30.4565 423.973 21.5499 412.986 21.5499C401.999 21.5499 393.093 30.4565 393.093 41.4434C393.093 52.4303 401.999 61.337 412.986 61.337Z" fill="#A0616A"/>
<path d="M390.62 32.5714C390.952 32.7462 391.277 32.9063 391.609 33.0665C391.956 33.234 392.302 33.4015 392.649 33.5544C399.311 36.576 404.733 36.9109 408.023 32.5714C408.111 30.288 408.624 28.0411 409.535 25.9456C409.374 28.2873 409.991 30.6167 411.291 32.5714H417.915C424.739 37.1002 428.243 37.5735 423.507 52.4415C422.186 56.5845 416.936 80.6922 419.001 84.2673C419.599 84.2017 425.956 57.7963 426.531 57.6871C439.5 55.2334 447.74 33.8674 446.685 32.6588C446.69 29.2217 445.9 25.83 444.376 22.7492C442.448 18.846 439.443 15.5765 435.716 13.3275C433.494 12.2502 431.178 11.38 428.796 10.7281C428.737 10.7135 428.685 10.6989 428.626 10.6844C427.896 10.4878 427.151 10.3058 426.406 10.1529C424.867 9.82787 423.31 9.59206 421.744 9.44662C421.633 9.43933 421.522 9.43204 421.419 9.43204C420.794 9.4335 420.18 9.60192 419.641 9.91991C419.634 9.91991 419.634 9.92715 419.627 9.92715C419.242 10.1521 418.906 10.4516 418.638 10.8082C418.167 11.4081 417.912 12.1496 417.915 12.9124H410.538C410.265 12.9124 409.992 12.9197 409.719 12.9342C404.796 13.1025 400.112 15.1019 396.585 18.5414C393.058 21.9808 390.942 26.6125 390.65 31.5302C390.628 31.8797 390.62 32.2219 390.62 32.5714Z" fill="#2F2E41"/>
<path d="M434.117 26.212C441.355 26.212 447.223 20.3442 447.223 13.106C447.223 5.86775 441.355 0 434.117 0C426.878 0 421.011 5.86775 421.011 13.106C421.011 20.3442 426.878 26.212 434.117 26.212Z" fill="#2F2E41"/>
<path d="M477.739 252.459C478.379 251.45 478.792 250.315 478.95 249.131C479.107 247.947 479.006 246.743 478.652 245.602C478.299 244.461 477.702 243.411 476.902 242.524C476.103 241.636 475.121 240.933 474.023 240.463L474.088 199.361L462.723 196.548L463.003 245.366C462.349 247.272 462.417 249.353 463.194 251.213C463.972 253.073 465.404 254.583 467.221 255.458C469.037 256.332 471.111 256.51 473.05 255.957C474.989 255.404 476.657 254.16 477.739 252.459V252.459Z" fill="#A0616A"/>
<path d="M421.463 101.477L439.148 89.4587C439.973 88.898 440.906 88.5161 441.887 88.3373C442.869 88.1586 443.877 88.187 444.846 88.4208C445.816 88.6546 446.726 89.0886 447.518 89.6949C448.31 90.3013 448.967 91.0665 449.446 91.9416L479.849 147.5L479.966 228.811L460.984 227.621L453.191 160.491L421.463 101.477Z" fill="#51C773"/>
<path d="M285.646 285.878H96.6456C92.5347 285.878 88.5922 287.511 85.6854 290.417C82.7786 293.324 81.1456 297.267 81.1456 301.378C81.1456 305.488 82.7786 309.431 85.6854 312.338C88.5922 315.245 92.5347 316.878 96.6456 316.878H285.646C289.756 316.878 293.699 315.245 296.606 312.338C299.513 309.431 301.146 305.488 301.146 301.378C301.146 297.267 299.513 293.324 296.606 290.417C293.699 287.511 289.756 285.878 285.646 285.878V285.878Z" fill="white"/>
<path d="M285.646 317.878H96.6456C92.2695 317.878 88.0727 316.139 84.9783 313.045C81.884 309.95 80.1456 305.754 80.1456 301.378C80.1456 297.001 81.884 292.805 84.9783 289.71C88.0727 286.616 92.2695 284.878 96.6456 284.878H285.646C290.022 284.878 294.218 286.616 297.313 289.71C300.407 292.805 302.146 297.001 302.146 301.378C302.146 305.754 300.407 309.95 297.313 313.045C294.218 316.139 290.022 317.878 285.646 317.878V317.878ZM96.6456 286.878C92.7999 286.878 89.1118 288.405 86.3925 291.125C83.6732 293.844 82.1456 297.532 82.1456 301.378C82.1456 305.223 83.6732 308.911 86.3925 311.631C89.1118 314.35 92.7999 315.878 96.6456 315.878H285.646C289.491 315.878 293.179 314.35 295.899 311.631C298.618 308.911 300.146 305.223 300.146 301.378C300.146 297.532 298.618 293.844 295.899 291.125C293.179 288.405 289.491 286.878 285.646 286.878H96.6456Z" fill="#51C773"/>
<path d="M296.79 353.52H213.384C212.215 353.52 211.093 353.056 210.267 352.229C209.44 351.403 208.976 350.281 208.976 349.112C208.976 347.943 209.44 346.822 210.267 345.995C211.093 345.169 212.215 344.704 213.384 344.704H296.79C297.959 344.704 299.08 345.169 299.907 345.995C300.734 346.822 301.198 347.943 301.198 349.112C301.198 350.281 300.734 351.403 299.907 352.229C299.08 353.056 297.959 353.52 296.79 353.52V353.52Z" fill="#51C773"/>
</g>
<defs>
<clipPath id="clip0_84_318">
<rect width="493.461" height="480.848" fill="white"/>
</clipPath>
</defs>
</svg>
