<svg width="581" height="405" viewBox="0 0 581 405" fill="none" xmlns="http://www.w3.org/2000/svg">
<g clip-path="url(#clip0_32_295)">
<path d="M115.76 404.232C179.693 404.232 231.521 400.296 231.521 395.44C231.521 390.584 179.693 386.648 115.76 386.648C51.8277 386.648 0 390.584 0 395.44C0 400.296 51.8277 404.232 115.76 404.232Z" fill="#E6E6E6"/>
<path d="M88.4851 89.692C108.631 81.1233 133.723 86.5523 158.228 90.3203C158.456 85.7573 161.22 80.2038 158.324 77.0204C154.807 73.1529 155.131 69.0891 157.247 65.002C162.66 54.5506 154.905 43.4298 147.075 34.1829C145.31 32.1034 143.08 30.4695 140.565 29.4139C138.05 28.3583 135.321 27.9109 132.601 28.1078L118.096 29.1439C114.566 29.396 111.198 30.72 108.442 32.9388C105.685 35.1576 103.672 38.1654 102.671 41.5596C99.208 46.27 97.3542 50.9674 98.5213 55.6403C93.3336 59.1855 92.462 63.465 94.7932 68.2893C96.7699 71.3268 96.7489 74.2836 94.7033 77.1586C92.0168 80.8239 89.9592 84.9109 88.6148 89.2519L88.4851 89.692Z" fill="#2F2E41"/>
<path d="M567.232 349.452H156.636C152.985 349.452 149.483 348.002 146.901 345.42C144.319 342.838 142.869 339.336 142.869 335.685C291.71 318.386 437.754 318.386 581 335.685C581 339.336 579.549 342.838 576.968 345.42C574.386 348.002 570.884 349.452 567.232 349.452Z" fill="#2F2E41"/>
<path d="M581 336.494L142.869 335.685L193.647 250.245L193.89 249.84V61.5408C193.889 59.2553 194.34 56.9921 195.214 54.8805C196.089 52.7689 197.371 50.8502 198.987 49.2341C200.603 47.618 202.521 46.336 204.633 45.4615C206.745 44.5869 209.008 44.1369 211.293 44.1371H510.146C512.431 44.1369 514.695 44.5869 516.806 45.4615C518.918 46.336 520.836 47.618 522.453 49.2341C524.069 50.8502 525.351 52.7689 526.225 54.8805C527.1 56.9921 527.55 59.2553 527.55 61.5408V251.136L581 336.494Z" fill="#3F3D56"/>
<path d="M210.897 56.2849C209.394 56.2866 207.953 56.8844 206.89 57.9471C205.827 59.0099 205.229 60.4509 205.228 61.9538V233.643C205.229 235.146 205.827 236.587 206.89 237.65C207.953 238.712 209.394 239.31 210.897 239.312H512.972C514.475 239.31 515.916 238.712 516.979 237.65C518.042 236.587 518.639 235.146 518.641 233.643V61.9538C518.639 60.4509 518.042 59.01 516.979 57.9472C515.916 56.8845 514.475 56.2866 512.972 56.2849H210.897Z" fill="white"/>
<path d="M212.162 261.988C211.698 261.989 211.243 262.122 210.852 262.373C210.461 262.623 210.15 262.98 209.955 263.402L194.309 297.416C194.139 297.786 194.064 298.193 194.092 298.599C194.12 299.006 194.25 299.399 194.47 299.742C194.69 300.085 194.992 300.367 195.35 300.563C195.707 300.758 196.108 300.861 196.516 300.861H525.548C525.962 300.861 526.369 300.755 526.731 300.553C527.093 300.352 527.397 300.061 527.615 299.708C527.832 299.356 527.956 298.954 527.975 298.54C527.993 298.127 527.906 297.715 527.72 297.345L510.713 263.331C510.513 262.926 510.203 262.586 509.819 262.349C509.435 262.112 508.992 261.986 508.541 261.988H212.162Z" fill="#2F2E41"/>
<path d="M360.72 53.4504C362.732 53.4504 364.364 51.8188 364.364 49.806C364.364 47.7933 362.732 46.1617 360.72 46.1617C358.707 46.1617 357.075 47.7933 357.075 49.806C357.075 51.8188 358.707 53.4504 360.72 53.4504Z" fill="white"/>
<path d="M328.378 307.34C327.844 307.34 327.325 307.517 326.901 307.842C326.478 308.166 326.172 308.622 326.033 309.137L322.108 323.715C322.011 324.075 321.998 324.452 322.071 324.818C322.143 325.184 322.299 325.528 322.525 325.824C322.752 326.12 323.044 326.36 323.378 326.525C323.713 326.69 324.081 326.776 324.454 326.776H399.093C399.48 326.776 399.862 326.684 400.206 326.506C400.55 326.329 400.847 326.071 401.072 325.756C401.296 325.44 401.442 325.076 401.497 324.692C401.552 324.309 401.515 323.918 401.388 323.552L396.342 308.974C396.177 308.497 395.867 308.083 395.455 307.79C395.044 307.497 394.551 307.34 394.046 307.34H328.378Z" fill="#2F2E41"/>
<path d="M527.549 247.006V250.245H193.647L193.898 249.84V247.006H527.549Z" fill="#2F2E41"/>
<path d="M518.236 113.38C549.545 113.38 574.926 87.9987 574.926 56.6898C574.926 25.3809 549.545 0 518.236 0C486.927 0 461.547 25.3809 461.547 56.6898C461.547 87.9987 486.927 113.38 518.236 113.38Z" fill="#51C773"/>
<path d="M541.722 81.3904H494.751C493.892 81.3895 493.068 81.0479 492.461 80.4406C491.854 79.8333 491.512 79.0098 491.511 78.1509V49.806C491.512 48.9472 491.854 48.1237 492.461 47.5164C493.068 46.9091 493.892 46.5675 494.751 46.5666H541.722C542.581 46.5675 543.404 46.9091 544.012 47.5164C544.619 48.1237 544.961 48.9472 544.961 49.806V78.1509C544.961 79.0098 544.619 79.8333 544.012 80.4406C543.404 81.048 542.581 81.3895 541.722 81.3904ZM494.751 49.8061V78.1509H541.724L541.722 49.806L494.751 49.8061Z" fill="white"/>
<path d="M532.814 49.806H503.659V36.8484C503.659 27.4631 509.79 20.6513 518.236 20.6513C526.683 20.6513 532.814 27.4631 532.814 36.8484L532.814 49.806ZM506.898 46.5666H529.574V36.8484C529.574 29.2192 524.912 23.8907 518.236 23.8907C511.561 23.8907 506.898 29.2192 506.898 36.8484L506.898 46.5666Z" fill="white"/>
<path d="M518.236 66.408C520.025 66.408 521.476 64.9577 521.476 63.1686C521.476 61.3795 520.025 59.9292 518.236 59.9292C516.447 59.9292 514.997 61.3795 514.997 63.1686C514.997 64.9577 516.447 66.408 518.236 66.408Z" fill="white"/>
<path d="M478.662 181.077H245.207C244.061 181.075 242.962 180.619 242.151 179.809C241.341 178.999 240.885 177.9 240.884 176.753V118.843C240.885 117.697 241.341 116.598 242.151 115.788C242.962 114.977 244.061 114.521 245.207 114.52H478.662C479.808 114.521 480.907 114.977 481.717 115.788C482.528 116.598 482.984 117.697 482.985 118.843V176.753C482.984 177.9 482.528 178.999 481.717 179.809C480.907 180.619 479.808 181.075 478.662 181.077ZM245.207 116.249C244.519 116.25 243.86 116.524 243.374 117.01C242.887 117.496 242.614 118.156 242.613 118.843V176.753C242.614 177.441 242.887 178.101 243.374 178.587C243.86 179.073 244.519 179.347 245.207 179.347H478.662C479.35 179.347 480.009 179.073 480.495 178.587C480.982 178.101 481.255 177.441 481.256 176.753V118.843C481.255 118.156 480.982 117.496 480.495 117.01C480.009 116.524 479.35 116.25 478.662 116.249L245.207 116.249Z" fill="#E6E6E6"/>
<path d="M281.481 163.187C291.207 163.187 299.092 155.302 299.092 145.576C299.092 135.85 291.207 127.966 281.481 127.966C271.755 127.966 263.871 135.85 263.871 145.576C263.871 155.302 271.755 163.187 281.481 163.187Z" fill="#E6E6E6"/>
<path d="M322.153 133.836C321.767 133.835 321.385 133.911 321.029 134.058C320.672 134.205 320.348 134.421 320.075 134.694C319.802 134.967 319.585 135.29 319.437 135.647C319.29 136.003 319.213 136.385 319.213 136.771C319.213 137.157 319.29 137.539 319.437 137.895C319.585 138.252 319.802 138.576 320.075 138.848C320.348 139.121 320.672 139.337 321.029 139.484C321.385 139.631 321.767 139.707 322.153 139.706H460.522C461.3 139.706 462.047 139.397 462.597 138.847C463.148 138.296 463.457 137.55 463.457 136.771C463.457 135.993 463.148 135.246 462.597 134.696C462.047 134.145 461.3 133.836 460.522 133.836H322.153Z" fill="#E6E6E6"/>
<path d="M322.153 151.447C321.375 151.447 320.628 151.756 320.078 152.306C319.527 152.857 319.218 153.603 319.218 154.382C319.218 155.16 319.527 155.907 320.078 156.457C320.628 157.008 321.375 157.317 322.153 157.317H381.694C382.472 157.317 383.219 157.008 383.769 156.457C384.319 155.907 384.629 155.16 384.629 154.382C384.629 153.603 384.319 152.857 383.769 152.306C383.219 151.756 382.472 151.447 381.694 151.447H322.153Z" fill="#E6E6E6"/>
<path d="M193.072 152.634L149.916 175.578L149.37 156.458C163.456 154.106 176.857 150.012 189.248 143.347L193.762 132.196C194.254 130.981 195.053 129.915 196.081 129.102C197.11 128.289 198.332 127.757 199.628 127.56C200.924 127.362 202.249 127.504 203.473 127.973C204.697 128.442 205.778 129.221 206.61 130.234C207.827 131.716 208.436 133.605 208.312 135.519C208.189 137.433 207.342 139.229 205.944 140.542L193.072 152.634Z" fill="#FFB8B8"/>
<path d="M87.6249 285.102C87.31 283.948 87.2432 282.739 87.4288 281.557C87.6143 280.375 88.048 279.245 88.7014 278.242L98.1815 263.693C100.424 260.252 103.864 257.767 107.836 256.719C111.807 255.671 116.026 256.136 119.674 258.023C115.69 264.805 116.245 270.754 121.05 275.925C113.591 279.566 106.697 284.266 100.582 289.878C99.4661 290.639 98.184 291.122 96.8431 291.288C95.5021 291.453 94.1411 291.295 92.8734 290.828C91.6057 290.361 90.468 289.597 89.555 288.602C88.6421 287.606 87.9803 286.406 87.6249 285.102Z" fill="#2F2E41"/>
<path d="M195.038 266.079C193.603 268.47 191.578 270.452 189.157 271.835C186.736 273.218 184 273.956 181.212 273.977L118.232 274.454L115.501 258.612L143.361 250.418L119.871 232.39L145.546 202.345L192.18 245.81C194.905 248.35 196.676 251.749 197.197 255.439C197.717 259.128 196.955 262.884 195.038 266.079Z" fill="#2F2E41"/>
<path d="M108.399 374.423H93.6496C80.4067 283.648 66.9267 192.619 106.76 158.643L153.74 166.291L147.731 206.169L121.51 236.214L108.399 374.423Z" fill="#2F2E41"/>
<path d="M121.365 394.986C120.21 395.301 119.002 395.368 117.819 395.182C116.637 394.997 115.507 394.563 114.505 393.91L98.4897 391.757C95.0484 389.515 92.5626 386.075 91.5146 382.103C90.4667 378.132 90.9312 373.913 92.8182 370.265C99.6003 374.249 105.55 373.693 110.72 368.888C114.373 376.264 120.391 375.814 126.14 382.028C126.901 383.145 127.384 384.426 127.549 385.767C127.715 387.108 127.557 388.469 127.09 389.737C126.623 391.005 125.86 392.143 124.864 393.056C123.868 393.969 122.668 394.63 121.365 394.986Z" fill="#2F2E41"/>
<path d="M143.361 98.0061L116.047 91.4507C120.583 82.1651 120.957 71.8329 118.778 60.8592L137.352 60.3129C137.934 73.959 139.694 86.7079 143.361 98.0061Z" fill="#FFB8B8"/>
<path d="M150.868 182.739C130.984 196.288 116.935 183.202 106.214 163.013C107.704 150.659 105.292 135.875 100.824 119.811C98.8372 112.725 99.5789 105.153 102.903 98.5874C106.227 92.0222 111.891 86.9417 118.778 84.3491L142.268 94.1822C162.214 110.44 166.14 128.051 158.657 146.625L150.868 182.739Z" fill="#51C773"/>
<path d="M93.6496 111.663L71.7985 123.135L110.584 146.079L115.981 159.391C116.341 160.279 116.517 161.232 116.497 162.19C116.477 163.149 116.262 164.093 115.865 164.966C115.468 165.839 114.898 166.621 114.188 167.267C113.479 167.912 112.646 168.405 111.739 168.718C110.709 169.073 109.611 169.185 108.53 169.045C107.449 168.905 106.415 168.516 105.51 167.91C104.604 167.304 103.851 166.496 103.31 165.55C102.769 164.604 102.454 163.546 102.39 162.458L101.844 153.18L52.5476 136.912C50.8867 136.364 49.3723 135.445 48.119 134.225C46.8658 133.005 45.9067 131.516 45.3143 129.87C44.4507 127.472 44.4068 124.854 45.1893 122.428C45.9718 120.002 47.5366 117.903 49.6389 116.461L89.2794 89.2656L93.6496 111.663Z" fill="#FFB8B8"/>
<path d="M115.501 113.848C106.387 109.854 98.1005 114.193 87.6406 117.672L86.0017 88.7194C96.388 83.1836 106.291 81.6911 115.501 85.988L115.501 113.848Z" fill="#51C773"/>
<path d="M126.402 74.6542C136.034 74.6542 143.841 66.8465 143.841 57.2153C143.841 47.5841 136.034 39.7765 126.402 39.7765C116.771 39.7765 108.963 47.5841 108.963 57.2153C108.963 66.8465 116.771 74.6542 126.402 74.6542Z" fill="#FFB8B8"/>
<path d="M147.265 55.015C129.999 56.706 116.842 53.8822 108.434 45.842V39.367H145.799L147.265 55.015Z" fill="#2F2E41"/>
</g>
<defs>
<clipPath id="clip0_32_295">
<rect width="581" height="404.232" fill="white"/>
</clipPath>
</defs>
</svg>
