<svg width="26" height="26" viewBox="0 0 26 26" fill="none" xmlns="http://www.w3.org/2000/svg">
<g clip-path="url(#clip0_32_364)">
<path fill-rule="evenodd" clip-rule="evenodd" d="M26 4.73161C25.0447 5.1667 24.0161 5.46083 22.9371 5.59225C24.0388 4.91625 24.8844 3.84415 25.2828 2.56731C24.2511 3.19334 23.1111 3.64875 21.8932 3.8929C20.9227 2.83036 19.5353 2.16675 18.0001 2.16675C15.0562 2.16675 12.6679 4.61583 12.6679 7.6363C12.6679 8.06509 12.7136 8.4813 12.8052 8.88206C8.3722 8.65334 4.44254 6.47808 1.80984 3.16511C1.35057 3.97578 1.08793 4.91625 1.08793 5.91786C1.08793 7.81464 2.02962 9.489 3.46104 10.4703C2.58821 10.4437 1.76393 10.1949 1.04365 9.788V9.85523C1.04365 12.5062 2.88254 14.7174 5.32431 15.2183C4.87723 15.3467 4.40557 15.4109 3.91868 15.4109C3.5754 15.4109 3.23963 15.378 2.91443 15.3138C3.59348 17.486 5.56217 19.0682 7.89709 19.1104C6.07181 20.5784 3.7706 21.4531 1.27237 21.4531C0.841947 21.4531 0.416197 21.4281 -0.000411987 21.3779C2.36051 22.9271 5.16546 23.8333 8.17638 23.8333C17.9891 23.8333 23.3533 15.4999 23.3533 8.27147C23.3533 8.03361 23.3486 7.79575 23.3395 7.56256C24.3823 6.79109 25.2872 5.82869 26 4.73161Z" fill="white"/>
</g>
<defs>
<clipPath id="clip0_32_364">
<rect width="26" height="26" fill="white"/>
</clipPath>
</defs>
</svg>
